<svg width="522" height="363" viewBox="0 0 522 363" fill="none" xmlns="http://www.w3.org/2000/svg">
<g clip-path="url(#clip0_1_2560)">
<path d="M260.668 10L618.337 371.5H-97L260.668 10Z" fill="#030000"/>
<path d="M272.668 278C301.51 277.837 330.351 277.713 359.193 277.637C361.858 277.63 364.523 277.623 367.188 277.615C367.85 277.614 368.512 277.612 369.195 277.61C379.252 277.581 389.31 277.532 399.367 277.472C411.038 277.402 422.708 277.357 434.379 277.341C440.56 277.332 446.74 277.311 452.921 277.26C458.737 277.212 464.552 277.198 470.369 277.208C472.504 277.206 474.64 277.192 476.776 277.166C479.691 277.131 482.603 277.139 485.519 277.158C486.365 277.138 487.212 277.117 488.084 277.096C490.463 277.139 490.463 277.139 494.668 278C496.648 280.31 498.628 282.62 500.668 285C425.428 285 350.188 285 272.668 285C272.668 282.69 272.668 280.38 272.668 278Z" fill="#D4293D"/>
<path d="M28.7193 277.255C29.3949 277.257 30.0704 277.259 30.7664 277.262C31.5531 277.25 32.3399 277.238 33.1505 277.226C34.0036 277.243 34.8567 277.26 35.7357 277.278C36.6506 277.273 37.5655 277.268 38.5081 277.263C41.5751 277.253 44.64 277.286 47.7068 277.319C49.9045 277.321 52.1023 277.32 54.3 277.316C60.2689 277.314 66.237 277.35 72.2056 277.392C78.4423 277.429 84.6789 277.433 90.9157 277.44C101.384 277.456 111.853 277.494 122.322 277.547C133.103 277.602 143.885 277.645 154.667 277.67C155.332 277.672 155.997 277.674 156.682 277.675C160.017 277.683 163.352 277.691 166.687 277.698C194.348 277.761 222.008 277.866 249.668 278C249.668 279.98 249.668 281.96 249.668 284C174.428 284 99.1885 284 21.6685 284C26.6685 278 26.6685 278 28.7193 277.255Z" fill="#D4293D"/>
<path d="M45.356 267.519C46.6671 267.514 46.6671 267.514 48.0047 267.509C50.9331 267.502 53.8605 267.524 56.7888 267.546C58.8881 267.547 60.9873 267.546 63.0865 267.544C68.7866 267.543 74.4863 267.567 80.1863 267.594C86.1427 267.619 92.0991 267.622 98.0556 267.627C109.335 267.639 120.615 267.672 131.895 267.712C144.736 267.757 157.578 267.779 170.419 267.799C196.836 267.841 223.252 267.911 249.668 268C249.668 269.98 249.668 271.96 249.668 274C177.728 274 105.788 274 31.6685 274C31.6685 272 31.6685 272 33.6255 269.905C37.5594 267.442 40.8605 267.455 45.356 267.519Z" fill="#D4293D"/>
<path d="M272.668 268C300.223 267.86 327.778 267.754 355.333 267.689C368.127 267.658 380.921 267.616 393.715 267.547C404.864 267.488 416.014 267.449 427.163 267.435C433.068 267.428 438.973 267.409 444.878 267.366C450.434 267.325 455.99 267.312 461.546 267.321C463.587 267.32 465.628 267.308 467.669 267.285C470.453 267.255 473.235 267.262 476.019 267.278C476.829 267.261 477.639 267.244 478.474 267.226C480.742 267.262 480.742 267.262 484.668 268C486.318 269.98 487.968 271.96 489.668 274C418.058 274 346.448 274 272.668 274C272.668 272.02 272.668 270.04 272.668 268Z" fill="#D4293D"/>
<path d="M63.6347 248.519C64.4312 248.516 65.2277 248.512 66.0483 248.509C68.7141 248.502 71.3789 248.524 74.0447 248.546C75.9567 248.547 77.8688 248.546 79.7808 248.544C84.9706 248.543 90.16 248.567 95.3497 248.594C100.774 248.619 106.197 248.622 111.621 248.627C121.892 248.639 132.162 248.672 142.433 248.712C154.126 248.757 165.818 248.779 177.511 248.799C201.564 248.841 225.616 248.911 249.668 249C249.668 250.98 249.668 252.96 249.668 255C183.998 255 118.328 255 50.6685 255C50.6685 253 50.6685 253 52.6706 250.905C56.3968 248.537 59.3621 248.452 63.6347 248.519Z" fill="#D4293D"/>
<path d="M272.668 249C297.746 248.86 322.824 248.754 347.902 248.689C359.545 248.658 371.189 248.616 382.833 248.547C392.98 248.488 403.127 248.449 413.275 248.435C418.649 248.428 424.023 248.409 429.397 248.366C434.454 248.325 439.51 248.312 444.567 248.321C446.425 248.32 448.282 248.308 450.139 248.285C452.674 248.255 455.205 248.262 457.74 248.278C458.477 248.261 459.213 248.244 459.972 248.226C462.039 248.262 462.039 248.262 465.668 249C467.318 250.98 468.968 252.96 470.668 255C405.328 255 339.988 255 272.668 255C272.668 253.02 272.668 251.04 272.668 249Z" fill="#D4293D"/>
<path d="M72.293 239.519C73.4326 239.514 73.4326 239.514 74.5953 239.509C77.1367 239.502 79.6771 239.524 82.2185 239.546C84.0419 239.547 85.8653 239.546 87.6886 239.544C92.6367 239.543 97.5843 239.566 102.532 239.594C107.704 239.619 112.876 239.622 118.047 239.627C127.84 239.639 137.632 239.672 147.424 239.712C158.573 239.757 169.722 239.779 180.87 239.799C203.803 239.84 226.736 239.911 249.668 240C249.668 241.98 249.668 243.96 249.668 246C186.968 246 124.268 246 59.6685 246C59.6685 244 59.6685 244 61.6919 241.905C65.3193 239.583 68.127 239.45 72.293 239.519Z" fill="#D4293D"/>
<path d="M81.9134 229.519C82.6323 229.516 83.3512 229.512 84.0919 229.509C86.4952 229.502 88.8973 229.524 91.3005 229.546C93.0254 229.547 94.7502 229.546 96.4751 229.544C101.155 229.543 105.834 229.567 110.513 229.594C115.404 229.619 120.296 229.622 125.187 229.627C134.448 229.639 143.709 229.672 152.971 229.712C163.515 229.757 174.059 229.779 184.603 229.799C206.291 229.841 227.98 229.911 249.668 230C249.668 231.98 249.668 233.96 249.668 236C190.268 236 130.868 236 69.6685 236C69.6685 234 69.6685 234 71.7156 231.905C75.3961 229.531 77.553 229.506 81.9134 229.519Z" fill="#D4293D"/>
<path d="M272.668 230C295.269 229.86 317.869 229.754 340.47 229.689C350.963 229.658 361.457 229.616 371.95 229.547C381.096 229.488 390.241 229.449 399.386 229.435C404.23 229.428 409.072 229.409 413.916 229.366C418.474 229.325 423.031 229.312 427.589 229.321C429.262 229.32 430.936 229.308 432.609 229.285C434.894 229.255 437.176 229.262 439.461 229.278C441.379 229.27 441.379 229.27 443.336 229.262C446.668 230 446.668 230 451.668 236C392.598 236 333.528 236 272.668 236C272.668 234.02 272.668 232.04 272.668 230Z" fill="#D4293D"/>
<path d="M49.3466 258.385C50.8623 258.364 52.3785 258.371 53.8941 258.399C54.7306 258.394 55.567 258.39 56.4288 258.386C59.2361 258.378 62.042 258.405 64.8491 258.432C66.8595 258.434 68.87 258.433 70.8804 258.43C76.343 258.429 81.8051 258.458 87.2676 258.493C92.9744 258.524 98.6812 258.527 104.388 258.533C115.197 258.549 126.006 258.59 136.815 258.64C149.119 258.696 161.424 258.723 173.728 258.748C199.042 258.801 224.355 258.889 249.668 259C249.668 260.65 249.668 262.3 249.668 264C181.028 264 112.388 264 41.6685 264C45.6685 259 45.6685 259 49.3466 258.385Z" fill="#D4293D"/>
<path d="M272.668 259C299.067 258.883 325.466 258.795 351.865 258.741C364.122 258.715 376.379 258.68 388.636 258.623C399.317 258.573 409.997 258.541 420.678 258.53C426.336 258.523 431.993 258.508 437.651 258.471C442.973 258.438 448.294 258.427 453.617 258.434C455.573 258.433 457.529 258.423 459.484 258.404C462.15 258.379 464.815 258.385 467.481 258.399C468.259 258.384 469.037 258.37 469.839 258.355C472.006 258.385 472.006 258.385 475.668 259C477.648 261.475 477.648 261.475 479.668 264C411.358 264 343.048 264 272.668 264C272.668 262.35 272.668 260.7 272.668 259Z" fill="#D4293D"/>
<path d="M90.5717 220.519C91.5949 220.514 91.5949 220.514 92.6388 220.509C94.9178 220.502 97.1955 220.524 99.4744 220.546C101.111 220.547 102.747 220.546 104.383 220.544C108.821 220.543 113.258 220.567 117.696 220.594C122.335 220.619 126.974 220.622 131.613 220.627C140.396 220.639 149.179 220.672 157.962 220.712C167.962 220.757 177.962 220.779 187.962 220.799C208.531 220.841 229.1 220.911 249.668 221C249.668 222.98 249.668 224.96 249.668 227C193.238 227 136.808 227 78.6685 227C78.6685 225 78.6685 225 80.737 222.905C84.3193 220.577 86.3238 220.506 90.5717 220.519Z" fill="#D4293D"/>
<path d="M272.668 221C294.095 220.907 315.522 220.836 336.949 220.793C346.898 220.772 356.847 220.744 366.796 220.698C375.466 220.658 384.137 220.633 392.808 220.624C397.399 220.618 401.991 220.606 406.582 220.577C410.904 220.55 415.225 220.542 419.547 220.548C421.133 220.546 422.719 220.539 424.305 220.523C426.472 220.503 428.637 220.508 430.803 220.519C432.015 220.515 433.227 220.512 434.476 220.508C438.288 221.095 439.98 222.281 442.668 225C442.668 225.66 442.668 226.32 442.668 227C386.568 227 330.468 227 272.668 227C272.668 225.02 272.668 223.04 272.668 221Z" fill="#D4293D"/>
<path d="M272.668 211C292.791 210.86 312.914 210.754 333.038 210.689C342.381 210.658 351.725 210.616 361.068 210.547C369.211 210.488 377.354 210.449 385.498 210.435C389.81 210.428 394.122 210.409 398.434 210.366C402.493 210.325 406.552 210.312 410.611 210.321C412.1 210.32 413.59 210.308 415.079 210.285C417.114 210.255 419.148 210.266 421.183 210.278C422.321 210.273 423.46 210.267 424.633 210.262C427.668 211 427.668 211 432.668 217C379.868 217 327.068 217 272.668 217C272.668 215.02 272.668 213.04 272.668 211Z" fill="#D4293D"/>
<path d="M272.668 240C296.59 239.883 320.511 239.795 344.433 239.741C355.54 239.715 366.647 239.68 377.753 239.623C387.432 239.573 397.111 239.541 406.79 239.53C411.917 239.523 417.043 239.508 422.169 239.471C426.993 239.437 431.815 239.427 436.638 239.434C438.41 239.433 440.182 239.423 441.955 239.404C444.371 239.379 446.786 239.385 449.202 239.399C449.906 239.384 450.611 239.37 451.336 239.355C453.303 239.385 453.303 239.385 456.668 240C458.648 242.475 458.648 242.475 460.668 245C398.628 245 336.588 245 272.668 245C272.668 243.35 272.668 241.7 272.668 240Z" fill="#D4293D"/>
<path d="M95.8731 210.259C96.9933 210.265 96.9933 210.265 98.1362 210.272C99.0022 210.262 99.8681 210.252 100.76 210.242C101.699 210.262 102.637 210.282 103.604 210.303C104.603 210.3 105.603 210.298 106.633 210.295C109.957 210.295 113.279 210.337 116.602 210.379C118.951 210.388 121.3 210.394 123.649 210.397C129.874 210.415 136.098 210.469 142.322 210.53C148.471 210.583 154.619 210.599 160.768 210.619C190.409 210.739 220.038 211.24 249.668 212C249.668 213.65 249.668 215.3 249.668 217C196.538 217 143.408 217 88.6685 217C93.6685 211 93.6685 211 95.8731 210.259Z" fill="#D4293D"/>
<path d="M108.627 201.479C109.821 201.464 111.016 201.45 112.247 201.436C113.548 201.441 114.85 201.446 116.192 201.451C117.584 201.442 118.975 201.432 120.367 201.42C124.14 201.393 127.912 201.392 131.685 201.397C134.836 201.399 137.987 201.389 141.138 201.38C148.572 201.357 156.006 201.357 163.44 201.369C171.107 201.381 178.773 201.356 186.44 201.314C193.027 201.278 199.612 201.266 206.199 201.273C210.131 201.276 214.063 201.271 217.995 201.243C221.692 201.218 225.388 201.222 229.085 201.248C231.087 201.255 233.089 201.233 235.09 201.209C236.882 201.23 236.882 201.23 238.71 201.252C240.264 201.251 240.264 201.251 241.85 201.251C244.668 202 244.668 202 249.668 208C199.508 208 149.348 208 97.6685 208C97.6685 207.34 97.6685 206.68 97.6685 206C101.265 202.463 103.625 201.498 108.627 201.479Z" fill="#D4293D"/>
<path d="M280.472 201.251C282.015 201.251 282.015 201.251 283.589 201.252C284.775 201.238 285.961 201.223 287.183 201.209C289.122 201.232 289.122 201.232 291.1 201.255C292.482 201.251 293.864 201.243 295.245 201.233C298.992 201.214 302.737 201.233 306.483 201.26C310.406 201.283 314.328 201.274 318.251 201.27C324.838 201.269 331.425 201.291 338.013 201.328C345.625 201.37 353.237 201.377 360.85 201.365C368.177 201.353 375.504 201.364 382.831 201.387C385.947 201.396 389.064 201.398 392.18 201.394C395.851 201.39 399.521 201.406 403.192 201.438C405.179 201.45 407.166 201.443 409.154 201.436C410.34 201.45 411.526 201.464 412.748 201.479C413.777 201.483 414.805 201.487 415.865 201.491C419.404 202.134 421.126 203.502 423.668 206C423.668 206.66 423.668 207.32 423.668 208C373.838 208 324.008 208 272.668 208C277.668 202 277.668 202 280.472 201.251Z" fill="#D4293D"/>
<path d="M198.3 107.251C199.248 107.251 200.195 107.251 201.171 107.252C202.812 107.231 202.812 107.231 204.485 107.209C206.27 107.232 206.27 107.232 208.09 107.255C209.351 107.248 210.612 107.241 211.911 107.233C215.361 107.214 218.811 107.233 222.262 107.26C225.876 107.283 229.49 107.274 233.105 107.27C239.175 107.269 245.244 107.291 251.313 107.328C258.326 107.37 265.338 107.377 272.35 107.365C279.102 107.353 285.853 107.364 292.605 107.387C295.476 107.396 298.346 107.398 301.217 107.394C305.227 107.389 309.237 107.418 313.247 107.451C314.436 107.446 315.626 107.441 316.852 107.436C324.879 107.54 324.879 107.54 328.945 109.909C330.668 112 330.668 112 330.668 114C284.468 114 238.268 114 190.668 114C195.668 108 195.668 108 198.3 107.251Z" fill="#D4293D"/>
<path d="M123.54 192.451C125.343 192.435 125.343 192.435 127.182 192.42C130.472 192.397 133.761 192.392 137.05 192.397C139.799 192.399 142.547 192.389 145.296 192.38C151.78 192.357 158.265 192.357 164.75 192.369C171.435 192.381 178.12 192.356 184.805 192.314C190.551 192.278 196.296 192.266 202.041 192.273C205.471 192.276 208.899 192.271 212.328 192.243C216.152 192.219 219.974 192.232 223.797 192.255C225.498 192.232 225.498 192.232 227.233 192.209C228.276 192.223 229.319 192.237 230.393 192.252C231.297 192.251 232.2 192.251 233.131 192.251C235.668 193 235.668 193 240.668 199C196.448 199 152.228 199 106.668 199C106.668 197 106.668 197 108.427 194.909C113.336 192.018 117.938 192.426 123.54 192.451Z" fill="#D4293D"/>
<path d="M191.668 118C236.878 118 282.088 118 328.668 118C327.678 119.65 326.688 121.3 325.668 123C322.686 123.517 320.26 123.691 317.27 123.659C315.981 123.675 315.981 123.675 314.666 123.691C311.803 123.72 308.942 123.714 306.079 123.707C304.062 123.72 302.045 123.735 300.028 123.753C294.68 123.793 289.333 123.803 283.986 123.807C278.691 123.816 273.395 123.853 268.1 123.889C258.866 123.947 249.633 123.967 240.399 123.973C234.718 123.981 229.04 124.025 223.36 124.111C219.977 124.161 216.594 124.197 213.21 124.232C211.655 124.251 210.1 124.278 208.546 124.313C206.433 124.359 204.322 124.381 202.209 124.397C201.034 124.417 199.859 124.437 198.649 124.457C195.034 123.903 193.851 122.881 191.668 120C191.668 119.34 191.668 118.68 191.668 118Z" fill="#D4293D"/>
<path d="M200.668 127C239.938 127 279.208 127 319.668 127C317.668 131 317.668 131 315.668 133C313.7 133.257 313.7 133.257 311.241 133.267C310.31 133.276 309.379 133.284 308.42 133.293C307.395 133.292 306.371 133.291 305.315 133.291C304.239 133.297 303.162 133.304 302.053 133.311C298.48 133.33 294.906 133.334 291.333 133.336C288.856 133.342 286.38 133.349 283.904 133.356C278.707 133.368 273.51 133.372 268.313 133.371C261.646 133.369 254.979 133.398 248.311 133.432C243.195 133.454 238.079 133.458 232.962 133.457C230.504 133.46 228.045 133.469 225.587 133.484C222.151 133.504 218.716 133.498 215.28 133.486C214.26 133.497 213.239 133.508 212.188 133.52C205.309 133.458 205.309 133.458 202.005 131.095C200.668 129 200.668 129 200.668 127Z" fill="#D4293D"/>
<path d="M123.894 182.245C125.028 182.242 125.028 182.242 126.184 182.238C127.496 182.213 127.496 182.213 128.835 182.187C129.782 182.199 130.728 182.211 131.704 182.224C132.711 182.213 133.718 182.203 134.755 182.192C138.081 182.165 141.405 182.183 144.731 182.203C147.044 182.199 149.356 182.193 151.669 182.186C156.514 182.177 161.359 182.19 166.205 182.218C172.416 182.252 178.626 182.232 184.837 182.196C189.612 182.175 194.387 182.182 199.162 182.197C201.452 182.201 203.742 182.196 206.032 182.182C209.234 182.167 212.432 182.19 215.633 182.224C216.58 182.211 217.527 182.199 218.502 182.187C219.377 182.204 220.251 182.221 221.153 182.238C221.908 182.24 222.664 182.243 223.443 182.245C225.668 183 225.668 183 230.668 189C193.048 189 155.428 189 116.668 189C121.668 183 121.668 183 123.894 182.245Z" fill="#D4293D"/>
<path d="M306.498 182.564C307.495 182.554 308.493 182.544 309.52 182.534C312.818 182.505 316.116 182.499 319.415 182.496C321.706 182.486 323.998 182.476 326.289 182.466C331.094 182.448 335.898 182.442 340.702 182.444C346.861 182.444 353.018 182.403 359.176 182.352C363.909 182.318 368.642 182.312 373.375 182.314C375.646 182.31 377.916 182.297 380.187 182.274C383.362 182.245 386.534 182.253 389.709 182.271C390.648 182.254 391.587 182.238 392.554 182.22C393.422 182.233 394.29 182.245 395.184 182.258C395.934 182.257 396.683 182.255 397.456 182.253C399.668 183 399.668 183 404.668 189C367.378 189 330.088 189 291.668 189C294.087 181.743 299.901 182.555 306.498 182.564Z" fill="#D4293D"/>
<path d="M289.07 192.371C289.969 192.369 290.867 192.367 291.792 192.365C292.827 192.351 293.861 192.337 294.927 192.322C296.057 192.332 297.186 192.343 298.35 192.353C299.544 192.344 300.738 192.335 301.968 192.326C305.239 192.308 308.509 192.312 311.78 192.328C315.204 192.341 318.628 192.329 322.052 192.321C327.802 192.312 333.552 192.324 339.302 192.348C345.948 192.375 352.594 192.367 359.24 192.339C364.948 192.316 370.656 192.313 376.364 192.326C379.772 192.334 383.18 192.335 386.589 192.319C390.389 192.306 394.187 192.325 397.987 192.353C399.116 192.343 400.246 192.333 401.409 192.322C402.961 192.343 402.961 192.343 404.545 192.365C405.892 192.368 405.892 192.368 407.267 192.371C409.668 193 409.668 193 413.668 198C370.438 198 327.208 198 282.668 198C286.668 193 286.668 193 289.07 192.371Z" fill="#D4293D"/>
<path d="M216.712 88.2561C217.382 88.2591 218.052 88.262 218.742 88.265C219.519 88.2539 220.295 88.2427 221.096 88.2313C221.933 88.2497 222.771 88.2681 223.634 88.2871C224.974 88.281 224.974 88.281 226.341 88.2747C229.287 88.2687 232.23 88.3056 235.176 88.3438C237.225 88.3499 239.273 88.3536 241.321 88.3551C245.61 88.3643 249.899 88.3931 254.188 88.4375C259.69 88.4941 265.192 88.5159 270.695 88.5249C274.923 88.5332 279.15 88.5528 283.378 88.5766C285.407 88.588 287.437 88.5975 289.466 88.6051C292.298 88.6189 295.13 88.6461 297.962 88.6777C299.224 88.6811 299.224 88.6811 300.512 88.6845C304.403 88.7421 306.358 88.7929 309.668 91C309.668 91.66 309.668 92.32 309.668 93C310.328 93 310.988 93 311.668 93C311.668 93.66 311.668 94.32 311.668 95C278.008 95 244.348 95 209.668 95C214.668 89 214.668 89 216.712 88.2561Z" fill="#D4293D"/>
<path d="M206.899 98.3708C208.124 98.368 208.124 98.368 209.375 98.3651C210.317 98.351 211.259 98.3369 212.229 98.3224C213.256 98.3325 214.283 98.3426 215.34 98.353C216.427 98.3443 217.513 98.3355 218.633 98.3265C222.229 98.3044 225.823 98.319 229.418 98.3359C231.914 98.3326 234.41 98.3277 236.906 98.3214C242.138 98.3141 247.37 98.3243 252.602 98.3481C258.649 98.3754 264.694 98.3665 270.741 98.339C276.561 98.3136 282.38 98.3163 288.2 98.3309C290.675 98.3343 293.151 98.3301 295.626 98.3185C299.083 98.3058 302.539 98.3251 305.997 98.353C307.023 98.3429 308.05 98.3328 309.108 98.3224C310.05 98.3365 310.992 98.3506 311.962 98.3651C312.779 98.367 313.596 98.3688 314.438 98.3708C316.668 99 316.668 99 320.668 104C281.068 104 241.468 104 200.668 104C204.668 99 204.668 99 206.899 98.3708Z" fill="#D4293D"/>
<path d="M139.051 173.482C140.299 173.472 140.299 173.472 141.571 173.461C144.312 173.444 147.052 173.455 149.793 173.469C151.702 173.466 153.611 173.462 155.521 173.457C159.519 173.451 163.516 173.46 167.514 173.479C172.636 173.501 177.756 173.488 182.878 173.464C186.819 173.45 190.76 173.454 194.701 173.465C196.589 173.467 198.478 173.464 200.366 173.455C203.006 173.445 205.645 173.46 208.286 173.482C209.064 173.474 209.842 173.466 210.644 173.458C214.378 173.516 216.504 173.896 219.692 175.907C221.668 178 221.668 178 221.668 180C189.988 180 158.308 180 125.668 180C125.668 178 125.668 178 127.645 175.907C131.484 173.486 134.654 173.437 139.051 173.482Z" fill="#D4293D"/>
<path d="M310.319 173.707C311.503 173.708 311.503 173.708 312.711 173.709C313.542 173.703 314.373 173.696 315.229 173.689C317.986 173.67 320.743 173.666 323.5 173.664C325.414 173.658 327.327 173.651 329.24 173.644C333.256 173.632 337.272 173.628 341.288 173.629C346.433 173.63 351.577 173.602 356.722 173.568C360.676 173.546 364.63 173.542 368.584 173.543C370.481 173.54 372.378 173.531 374.274 173.516C376.929 173.496 379.583 173.502 382.238 173.514C383.021 173.503 383.804 173.492 384.611 173.48C388.359 173.523 390.492 173.889 393.695 175.905C395.668 178 395.668 178 395.668 180C364.318 180 332.968 180 300.668 180C303.412 174.514 304.311 173.778 310.319 173.707Z" fill="#D4293D"/>
<path d="M210.668 137C243.668 137 276.668 137 310.668 137C306.668 142 306.668 142 304.732 142.624C304.054 142.623 303.376 142.622 302.677 142.621C301.501 142.638 301.501 142.638 300.302 142.655C299.452 142.642 298.601 142.629 297.725 142.615C296.822 142.621 295.919 142.626 294.989 142.632C292.005 142.644 289.023 142.62 286.04 142.594C283.967 142.592 281.895 142.592 279.823 142.594C275.481 142.592 271.14 142.574 266.798 142.542C261.226 142.502 255.656 142.498 250.085 142.505C245.806 142.509 241.528 142.496 237.25 142.479C235.196 142.472 233.141 142.469 231.087 142.47C228.218 142.468 225.351 142.447 222.483 142.42C221.204 142.424 221.204 142.424 219.899 142.429C214.097 142.344 214.097 142.344 211.927 140.6C210.668 139 210.668 139 210.668 137Z" fill="#D4293D"/>
<path d="M219.668 146C246.728 146 273.788 146 301.668 146C296.668 152 296.668 152 293.323 152.748C292.049 152.747 290.775 152.746 289.463 152.745C288.757 152.752 288.051 152.759 287.323 152.767C284.998 152.783 282.676 152.756 280.352 152.727C278.732 152.726 277.112 152.727 275.492 152.73C272.102 152.729 268.712 152.709 265.322 152.672C260.978 152.627 256.636 152.626 252.292 152.639C248.949 152.646 245.606 152.633 242.263 152.613C240.661 152.605 239.059 152.603 237.458 152.606C235.219 152.607 232.983 152.582 230.744 152.549C228.835 152.535 228.835 152.535 226.887 152.521C223.139 151.914 221.912 151.011 219.668 148C219.668 147.34 219.668 146.68 219.668 146Z" fill="#D4293D"/>
<path d="M317.786 163.238C318.953 163.233 320.121 163.229 321.323 163.224C321.971 163.213 322.619 163.203 323.286 163.192C325.416 163.165 327.543 163.183 329.672 163.203C331.158 163.199 332.643 163.193 334.129 163.186C337.237 163.177 340.344 163.19 343.451 163.218C347.432 163.252 351.411 163.232 355.392 163.196C358.457 163.175 361.522 163.182 364.587 163.197C366.055 163.201 367.523 163.196 368.99 163.182C371.043 163.167 373.091 163.19 375.143 163.224C376.893 163.231 376.893 163.231 378.678 163.238C381.668 164 381.668 164 385.668 170C360.588 170 335.508 170 309.668 170C314.668 164 314.668 164 317.786 163.238Z" fill="#D4293D"/>
<path d="M230.625 79.7254C231.341 79.7202 232.056 79.7151 232.794 79.7099C235.166 79.6959 237.538 79.6969 239.911 79.6992C241.557 79.6953 243.204 79.691 244.851 79.6862C248.306 79.6788 251.761 79.6791 255.216 79.6843C259.643 79.6901 264.071 79.6732 268.498 79.65C271.901 79.6353 275.303 79.6344 278.705 79.6375C280.338 79.637 281.97 79.6317 283.602 79.6217C285.886 79.6094 288.169 79.6161 290.453 79.6277C291.753 79.6271 293.052 79.6264 294.392 79.6258C297.831 80.0186 299.281 80.5315 301.668 83C301.668 83.66 301.668 84.32 301.668 85C274.608 85.33 247.548 85.66 219.668 86C222.741 79.8552 223.979 79.7489 230.625 79.7254Z" fill="#D4293D"/>
<path d="M142.704 164.379C143.891 164.381 145.078 164.383 146.301 164.385C146.959 164.379 147.616 164.374 148.293 164.368C150.461 164.356 152.626 164.38 154.793 164.406C156.303 164.408 157.812 164.408 159.321 164.406C162.482 164.408 165.642 164.426 168.803 164.458C172.852 164.498 176.9 164.502 180.949 164.495C184.065 164.491 187.18 164.504 190.296 164.521C191.789 164.528 193.282 164.531 194.774 164.53C196.862 164.532 198.948 164.553 201.036 164.58C202.816 164.593 202.816 164.593 204.633 164.606C207.918 165.032 209.352 165.664 211.668 168C211.668 168.66 211.668 169.32 211.668 170C186.588 170 161.508 170 135.668 170C139.668 165 139.668 165 142.704 164.379Z" fill="#D4293D"/>
<path d="M228.668 155C249.458 155 270.248 155 291.668 155C289.668 159 289.668 159 287.668 161C285.367 161.267 285.367 161.267 282.456 161.291C281.368 161.303 280.28 161.316 279.159 161.329C277.979 161.331 276.798 161.334 275.583 161.336C273.77 161.346 273.77 161.346 271.921 161.356C269.36 161.366 266.799 161.371 264.239 161.371C260.316 161.375 256.395 161.411 252.473 161.449C249.989 161.455 247.504 161.459 245.02 161.461C243.256 161.482 243.256 161.482 241.456 161.504C240.362 161.498 239.267 161.492 238.14 161.486C236.696 161.49 236.696 161.49 235.224 161.494C231.934 160.858 230.721 159.593 228.668 157C228.668 156.34 228.668 155.68 228.668 155Z" fill="#D4293D"/>
<path d="M152.058 154.252C153.298 154.253 153.298 154.253 154.563 154.255C155.507 154.243 156.452 154.23 157.425 154.218C158.433 154.236 159.442 154.254 160.481 154.273C161.527 154.272 162.574 154.271 163.652 154.27C165.861 154.275 168.07 154.295 170.279 154.328C173.657 154.375 177.032 154.369 180.411 154.355C182.559 154.367 184.708 154.381 186.856 154.398C187.864 154.397 188.873 154.395 189.912 154.393C194.357 154.483 196.974 154.582 200.844 156.913C202.668 159 202.668 159 202.668 161C183.528 161 164.388 161 144.668 161C149.668 155 149.668 155 152.058 154.252Z" fill="#D4293D"/>
<path d="M334.481 154.398C336.051 154.386 336.051 154.386 337.652 154.372C339.861 154.361 342.07 154.36 344.279 154.369C347.657 154.375 351.032 154.328 354.411 154.277C356.559 154.273 358.708 154.271 360.856 154.273C361.864 154.255 362.873 154.237 363.912 154.218C364.856 154.23 365.801 154.243 366.774 154.255C367.6 154.254 368.427 154.253 369.279 154.252C371.668 155 371.668 155 376.668 161C357.528 161 338.388 161 318.668 161C318.668 159 318.668 159 320.493 156.913C325.103 154.136 329.19 154.389 334.481 154.398Z" fill="#D4293D"/>
<path d="M235.249 70.3651C236.222 70.3611 237.196 70.3571 238.2 70.353C239.862 70.3294 239.862 70.3294 241.557 70.3053C243.345 70.3204 243.345 70.3204 245.168 70.3359C247.01 70.3288 247.01 70.3288 248.889 70.3214C251.485 70.318 254.081 70.3273 256.676 70.3481C260.654 70.3749 264.629 70.3484 268.606 70.3164C271.127 70.3197 273.648 70.3261 276.168 70.3359C277.956 70.3208 277.956 70.3208 279.78 70.3053C280.888 70.321 281.996 70.3368 283.137 70.353C284.598 70.359 284.598 70.359 286.088 70.3651C288.668 71 288.668 71 292.668 76C271.548 76 250.428 76 228.668 76C232.668 71 232.668 71 235.249 70.3651Z" fill="#D4293D"/>
<path d="M250.563 60.6641C251.347 60.6574 252.132 60.6507 252.94 60.6439C254.602 60.6338 256.264 60.6291 257.926 60.6294C260.461 60.625 262.995 60.5888 265.53 60.5508C267.145 60.5449 268.76 60.5409 270.375 60.5391C271.509 60.5175 271.509 60.5175 272.665 60.4955C276.396 60.5277 278.501 60.8943 281.687 62.9038C283.668 65 283.668 65 283.668 67C268.818 67 253.968 67 238.668 67C241.843 60.6508 243.95 60.6834 250.563 60.6641Z" fill="#D4293D"/>
<path d="M345.438 145.629C347.53 145.625 349.62 145.589 351.711 145.551C353.049 145.545 354.386 145.541 355.723 145.539C356.935 145.531 358.146 145.523 359.395 145.514C363.265 146.088 364.946 147.237 367.668 150C367.668 150.66 367.668 151.32 367.668 152C354.468 152 341.268 152 327.668 152C331.579 144.18 337.742 145.628 345.438 145.629Z" fill="#D4293D"/>
<path d="M238.668 165C252.858 165 267.048 165 281.668 165C279.668 169 279.668 169 277.668 170C275.005 170.123 272.368 170.188 269.704 170.203C268.52 170.212 268.52 170.212 267.312 170.22C265.642 170.23 263.972 170.236 262.302 170.24C259.744 170.25 257.188 170.281 254.631 170.312C253.01 170.319 251.388 170.324 249.766 170.328C249 170.34 248.235 170.353 247.446 170.366C242.162 170.343 242.162 170.343 239.662 168.604C238.668 167 238.668 167 238.668 165Z" fill="#D4293D"/>
<path d="M161.921 145.385C163.179 145.392 164.438 145.399 165.735 145.406C166.41 145.406 167.085 145.406 167.781 145.406C169.204 145.411 170.627 145.429 172.05 145.458C174.228 145.5 176.402 145.499 178.581 145.492C189.079 145.572 189.079 145.572 191.602 147.404C192.668 149 192.668 149 192.668 151C180.128 151 167.588 151 154.668 151C158.668 146 158.668 146 161.921 145.385Z" fill="#D4293D"/>
<path d="M260.481 51.625C261.289 51.6005 262.096 51.576 262.928 51.5508C267.045 51.5305 269.161 51.6864 272.743 53.8984C274.668 56 274.668 56 274.668 58C265.758 58 256.848 58 247.668 58C250.988 51.3617 253.569 51.6359 260.481 51.625Z" fill="#D4293D"/>
<path d="M247.668 174C255.918 174 264.168 174 272.668 174C270.668 178 270.668 178 268.668 180C265.83 180.253 263.132 180.37 260.293 180.375C259.525 180.399 258.757 180.424 257.965 180.449C254.135 180.469 252.273 180.452 249.129 178.102C247.668 176 247.668 176 247.668 174Z" fill="#D4293D"/>
<path d="M344.387 135.273C351.9 135.548 351.9 135.548 355.856 137.875C357.668 140 357.668 140 357.668 142C350.738 142 343.808 142 336.668 142C341.668 136 341.668 136 344.387 135.273Z" fill="#D4293D"/>
<path d="M178.668 136C181.236 137.418 182.639 138.811 184.668 141C184.668 141.33 184.668 141.66 184.668 142C177.738 142 170.808 142 163.668 142C163.668 140 163.668 140 165.543 137.875C169.921 135.249 173.68 135.045 178.668 136Z" fill="#D4293D"/>
<path d="M256.668 183C259.308 183 261.948 183 264.668 183C264.008 184.32 263.348 185.64 262.668 187C261.348 187 260.028 187 258.668 187C258.008 185.68 257.348 184.36 256.668 183Z" fill="#D4293D"/>
<path d="M259.668 44C263.543 45.75 263.543 45.75 264.668 48C262.028 48 259.388 48 256.668 48C257.658 46.68 258.648 45.36 259.668 44Z" fill="#D4293D"/>
<path d="M238.668 165C242.628 165 246.588 165 250.668 165C250.668 165.33 250.668 165.66 250.668 166C249.39 166.124 248.111 166.247 246.793 166.375C243.321 166.69 243.321 166.69 240.668 169C240.008 167.68 239.348 166.36 238.668 165Z" fill="#D4293D"/>
<path d="M52.5435 329.688H26.8872V321.5H52.5435V329.688ZM56.1997 348H26.8872C25.7622 348 24.533 347.802 23.1997 347.406C21.8664 347.01 20.6268 346.365 19.481 345.469C18.356 344.552 17.408 343.375 16.6372 341.938C15.8872 340.479 15.5122 338.698 15.5122 336.594V307.281C15.5122 306.719 15.6164 306.188 15.8247 305.688C16.033 305.188 16.3143 304.75 16.6685 304.375C17.0435 304 17.481 303.708 17.981 303.5C18.481 303.292 19.0226 303.188 19.606 303.188H56.1997V311.312H23.6372V336.594C23.6372 337.656 23.9185 338.469 24.481 339.031C25.0435 339.594 25.8664 339.875 26.9497 339.875H56.1997V348ZM105.231 348H68.1685C67.5851 348 67.0435 347.896 66.5435 347.688C66.0435 347.479 65.606 347.198 65.231 346.844C64.8768 346.469 64.5955 346.031 64.3872 345.531C64.1789 345.031 64.0747 344.49 64.0747 343.906V303.188H72.1997V339.875H105.231V348ZM147.856 329.688H122.2V321.5H147.856V329.688ZM151.512 348H122.2C121.075 348 119.846 347.802 118.512 347.406C117.179 347.01 115.939 346.365 114.793 345.469C113.668 344.552 112.721 343.375 111.95 341.938C111.2 340.479 110.825 338.698 110.825 336.594V307.281C110.825 306.719 110.929 306.188 111.137 305.688C111.346 305.188 111.627 304.75 111.981 304.375C112.356 304 112.793 303.708 113.293 303.5C113.793 303.292 114.335 303.188 114.918 303.188H151.512V311.312H118.95V336.594C118.95 337.656 119.231 338.469 119.793 339.031C120.356 339.594 121.179 339.875 122.262 339.875H151.512V348ZM206.356 348H194.825L176.543 329.688H170.825V321.5H176.543L194.825 303.188H206.356L183.325 325.594L206.356 348ZM167.575 348H159.45V303.188H167.575V348ZM251.95 311.312H234.043V348H225.918V311.312H207.981V303.188H251.95V311.312ZM302.731 318.25C302.731 320.104 302.502 321.76 302.043 323.219C301.585 324.677 300.96 325.969 300.168 327.094C299.398 328.198 298.502 329.146 297.481 329.938C296.46 330.729 295.387 331.385 294.262 331.906C293.158 332.406 292.033 332.771 290.887 333C289.762 333.229 288.7 333.344 287.7 333.344L304.668 348H292.106L275.168 333.344H269.325V325.219H287.7C288.721 325.135 289.648 324.927 290.481 324.594C291.335 324.24 292.064 323.771 292.668 323.188C293.293 322.604 293.773 321.906 294.106 321.094C294.439 320.26 294.606 319.312 294.606 318.25V313.125C294.606 312.667 294.543 312.323 294.418 312.094C294.314 311.844 294.168 311.667 293.981 311.562C293.814 311.438 293.627 311.365 293.418 311.344C293.231 311.323 293.054 311.312 292.887 311.312H266.075V348H257.95V307.281C257.95 306.719 258.054 306.188 258.262 305.688C258.471 305.188 258.752 304.75 259.106 304.375C259.481 304 259.918 303.708 260.418 303.5C260.918 303.292 261.46 303.188 262.043 303.188H292.887C294.7 303.188 296.231 303.521 297.481 304.188C298.731 304.833 299.741 305.656 300.512 306.656C301.304 307.635 301.866 308.698 302.2 309.844C302.554 310.99 302.731 312.062 302.731 313.062V318.25ZM357.918 329.875C357.918 332.604 357.45 335.115 356.512 337.406C355.575 339.698 354.273 341.677 352.606 343.344C350.939 345.01 348.96 346.312 346.668 347.25C344.398 348.167 341.918 348.625 339.231 348.625H328.231C325.543 348.625 323.054 348.167 320.762 347.25C318.471 346.312 316.491 345.01 314.825 343.344C313.158 341.677 311.846 339.698 310.887 337.406C309.95 335.115 309.481 332.604 309.481 329.875V321.312C309.481 318.604 309.95 316.104 310.887 313.812C311.846 311.5 313.158 309.521 314.825 307.875C316.491 306.208 318.471 304.906 320.762 303.969C323.054 303.031 325.543 302.562 328.231 302.562H339.231C341.918 302.562 344.398 303.031 346.668 303.969C348.96 304.906 350.939 306.208 352.606 307.875C354.273 309.521 355.575 311.5 356.512 313.812C357.45 316.104 357.918 318.604 357.918 321.312V329.875ZM349.793 321.312C349.793 319.708 349.533 318.26 349.012 316.969C348.512 315.656 347.793 314.542 346.856 313.625C345.939 312.688 344.825 311.969 343.512 311.469C342.221 310.948 340.793 310.688 339.231 310.688H328.231C326.648 310.688 325.2 310.948 323.887 311.469C322.596 311.969 321.481 312.688 320.543 313.625C319.606 314.542 318.877 315.656 318.356 316.969C317.856 318.26 317.606 319.708 317.606 321.312V329.875C317.606 331.479 317.856 332.938 318.356 334.25C318.877 335.542 319.606 336.656 320.543 337.594C321.481 338.51 322.596 339.229 323.887 339.75C325.2 340.25 326.648 340.5 328.231 340.5H339.168C340.752 340.5 342.189 340.25 343.481 339.75C344.793 339.229 345.918 338.51 346.856 337.594C347.793 336.656 348.512 335.542 349.012 334.25C349.533 332.938 349.793 331.479 349.793 329.875V321.312ZM410.731 344.531C410.731 345.115 410.616 345.656 410.387 346.156C410.179 346.656 409.887 347.094 409.512 347.469C409.158 347.823 408.731 348.104 408.231 348.312C407.731 348.521 407.2 348.625 406.637 348.625C406.137 348.625 405.627 348.531 405.106 348.344C404.606 348.156 404.158 347.854 403.762 347.438L374.075 316.438V348H365.95V306.656C365.95 305.823 366.179 305.073 366.637 304.406C367.116 303.719 367.721 303.208 368.45 302.875C369.221 302.562 370.012 302.49 370.825 302.656C371.637 302.802 372.335 303.177 372.918 303.781L402.606 334.75V303.188H410.731V344.531ZM457.043 329.688H431.387V321.5H457.043V329.688ZM460.7 348H431.387C430.262 348 429.033 347.802 427.7 347.406C426.366 347.01 425.127 346.365 423.981 345.469C422.856 344.552 421.908 343.375 421.137 341.938C420.387 340.479 420.012 338.698 420.012 336.594V307.281C420.012 306.719 420.116 306.188 420.325 305.688C420.533 305.188 420.814 304.75 421.168 304.375C421.543 304 421.981 303.708 422.481 303.5C422.981 303.292 423.523 303.188 424.106 303.188H460.7V311.312H428.137V336.594C428.137 337.656 428.418 338.469 428.981 339.031C429.543 339.594 430.366 339.875 431.45 339.875H460.7V348ZM509.075 311.312H491.168V348H483.043V311.312H465.106V303.188H509.075V311.312Z" fill="white"/>
</g>
<defs>
<clipPath id="clip0_1_2560">
<rect width="522" height="363" fill="white"/>
</clipPath>
</defs>
</svg>
